HIERARCHY
ROOT Hips
{
	OFFSET 0.000000 0.000000 0.000000
	CHANNELS 6 Xposition Yposition Zposition Xrotation Yrotation Zrotation
	JOINT LeftUpLeg_virtual
	{
		OFFSET 0.000000 0.000000 0.000000
		CHANNELS 3 Xrotation Yrotation Zrotation
		JOINT LeftUpLeg
		{
			OFFSET 13.026900 -6.336304 -1.092800
			CHANNELS 3 Xrotation Yrotation Zrotation
			JOINT LeftLeg
			{
				OFFSET 0.524474 -46.096886 9.782700
				CHANNELS 3 Xrotation Yrotation Zrotation
				JOINT LeftFoot
				{
					OFFSET -0.524474 -53.427422 -12.948200
					CHANNELS 3 Xrotation Yrotation Zrotation
					JOINT LeftToeBase
					{
						OFFSET 0.192200 -14.009700 16.364100
						CHANNELS 3 Xrotation Yrotation Zrotation
						JOINT LeftToe_End
						{
							OFFSET -1.784700 -0.561700 9.474800
							CHANNELS 3 Xrotation Yrotation Zrotation
							End Site
							{
								OFFSET 0 0 0
							}
						}
					}
				}
			}
		}
	}
	JOINT RightUpLeg_virtual
	{
		OFFSET 0.000000 0.000000 0.000000
		CHANNELS 3 Xrotation Yrotation Zrotation
		JOINT RightUpLeg
		{
			OFFSET -12.883000 -6.336304 -1.092800
			CHANNELS 3 Xrotation Yrotation Zrotation
			JOINT RightLeg
			{
				OFFSET -0.524587 -46.096825 9.782800
				CHANNELS 3 Xrotation Yrotation Zrotation
				JOINT RightFoot
				{
					OFFSET 0.524587 -53.427383 -12.948300
					CHANNELS 3 Xrotation Yrotation Zrotation
					JOINT RightToeBase
					{
						OFFSET -0.192200 -14.009700 16.364100
						CHANNELS 3 Xrotation Yrotation Zrotation
						JOINT RightToe_End
						{
							OFFSET 1.784700 -0.561700 9.474800
							CHANNELS 3 Xrotation Yrotation Zrotation
							End Site
							{
								OFFSET 0 0 0
							}
						}
					}
				}
			}
		}
	}
	JOINT Spine_virtual
	{
		OFFSET 0.000000 0.000000 0.000000
		CHANNELS 3 Xrotation Yrotation Zrotation
		JOINT Spine
		{
			OFFSET 0.072000 7.257294 -0.789700
			CHANNELS 3 Xrotation Yrotation Zrotation
			JOINT Spine1
			{
				OFFSET 0.000000 12.508769 -0.658067
				CHANNELS 3 Xrotation Yrotation Zrotation
				JOINT Spine1_split
				{
					OFFSET 0.000000 12.508769 -0.658067
					CHANNELS 3 Xrotation Yrotation Zrotation
					JOINT Spine2
					{
						OFFSET 0.000000 12.508769 -0.658067
						CHANNELS 3 Xrotation Yrotation Zrotation
						JOINT Neck_virtual
						{
							OFFSET 0.000000 0.000000 0.000000
							CHANNELS 3 Xrotation Yrotation Zrotation
							JOINT Neck
							{
								OFFSET 0.000000 14.033295 7.520400
								CHANNELS 3 Xrotation Yrotation Zrotation
								JOINT Head
								{
									OFFSET 0.000000 8.198502 5.703100
									CHANNELS 3 Xrotation Yrotation Zrotation
									JOINT HeadTop_End
									{
										OFFSET 0.000000 17.760803 13.332701
										CHANNELS 3 Xrotation Yrotation Zrotation
										End Site
										{
											OFFSET 0 0 0
										}
									}
								}
							}
						}
						JOINT LeftShoulder_virtual
						{
							OFFSET 0.000000 0.000000 0.000000
							CHANNELS 3 Xrotation Yrotation Zrotation
							JOINT LeftShoulder
							{
								OFFSET 6.292450 5.785301 -0.669000
								CHANNELS 3 Xrotation Yrotation Zrotation
								JOINT LeftShoulder_split
								{
									OFFSET 6.292450 5.785301 -0.669000
									CHANNELS 3 Xrotation Yrotation Zrotation
									JOINT LeftArm
									{
										OFFSET 13.907140 -6.093903 1.965100
										CHANNELS 3 Xrotation Yrotation Zrotation
										JOINT LeftForeArm
										{
											OFFSET 34.140198 0.000000 0.000000
											CHANNELS 3 Xrotation Yrotation Zrotation
											JOINT LeftHand
											{
												OFFSET 40.960209 0.000000 0.000000
												CHANNELS 3 Xrotation Yrotation Zrotation
												End Site
												{
													OFFSET 0 0 0
												}
											}
										}
									}
								}
							}
						}
						JOINT RightShoulder_virtual
						{
							OFFSET 0.000000 0.000000 0.000000
							CHANNELS 3 Xrotation Yrotation Zrotation
							JOINT RightShoulder
							{
								OFFSET -6.292450 5.785301 -0.669000
								CHANNELS 3 Xrotation Yrotation Zrotation
								JOINT RightShoulder_split
								{
									OFFSET -6.292450 5.785301 -0.669000
									CHANNELS 3 Xrotation Yrotation Zrotation
									JOINT RightArm
									{
										OFFSET -13.907140 -6.093903 1.965100
										CHANNELS 3 Xrotation Yrotation Zrotation
										JOINT RightForeArm
										{
											OFFSET -34.140198 0.000000 0.000000
											CHANNELS 3 Xrotation Yrotation Zrotation
											JOINT RightHand
											{
												OFFSET -40.960209 0.000000 0.000000
												CHANNELS 3 Xrotation Yrotation Zrotation
												End Site
												{
													OFFSET 0 0 0
												}
											}
										}
									}
								}
							}
						}
					}
				}
			}
		}
	}
}
MOTION
Frames: 6
Frame Time: 0.03333333
-7.784708 102.071022 -1.289986 0.000000 0.000000 0.000000 54.047229 -72.902311 55.662493 -57.923351 1.783650 0.748279 42.486102 -6.617024 2.639880 5.596220 -1.307628 -1.873342 -0.684773 1.134447 -0.978152 0.000000 0.000000 0.000000 58.430110 -73.676322 60.808307 -40.062225 -3.530024 -18.159262 47.078435 -2.941806 -1.617335 -15.964572 -3.507793 16.564921 -1.230194 0.742269 0.328311 0.000000 0.000000 0.000000 54.974693 -71.731343 55.834194 6.080513 3.377035 4.873992 13.100103 6.802382 6.517378 0.576614 -1.334048 0.665041 0.000000 0.000000 0.000000 12.084770 6.553790 6.308022 1.677930 -0.725395 2.175076 8.482648 4.657529 -5.358576 0.000000 0.000000 0.000000 12.560068 6.560402 6.285806 1.586918 -1.958529 -10.016568 0.583269 1.535833 -0.800324 -52.323245 -25.386719 -93.496971 -0.691871 -24.578291 0.034623 0.000000 0.000000 0.000000 11.963773 6.699424 6.423177 0.908335 12.933733 22.450769 -6.650077 -0.306727 -0.660449 -52.780113 22.758586 73.032863 0.319488 5.720511 1.359019 0.000000 0.000000 0.000000 
-7.753607 102.060829 -1.194180 0.000000 0.000000 0.000000 54.190106 -72.934836 55.790133 -57.972692 1.840350 0.728798 42.448447 -6.582291 2.660850 5.598427 -1.264879 -1.882747 -0.674095 1.136018 -0.983489 0.000000 0.000000 0.000000 58.442575 -73.674710 60.802972 -40.067341 -3.547067 -18.187117 47.041514 -2.929697 -1.615157 -15.928773 -3.545063 16.512496 -1.216414 0.746637 0.333670 0.000000 0.000000 0.000000 54.866069 -71.729212 55.703679 6.028561 3.373737 4.868915 13.124971 6.787033 6.497975 0.572392 -1.320425 0.633547 0.000000 0.000000 0.000000 12.098169 6.540951 6.301659 1.688029 -0.698186 2.177268 8.431134 4.694302 -5.374923 0.000000 0.000000 0.000000 12.550581 6.546223 6.292351 1.594083 -1.939792 -10.060734 0.626743 1.510562 -0.750177 -52.277510 -25.410339 -93.475776 -0.696746 -24.557751 0.008238 0.000000 0.000000 0.000000 11.947859 6.666394 6.418344 0.930161 12.876326 22.430331 -6.618838 -0.271061 -0.633636 -52.682161 22.579827 73.022652 0.278522 6.014671 1.383188 0.000000 0.000000 0.000000 
-7.707659 102.073029 -1.079803 0.000000 0.000000 0.000000 54.292655 -72.936394 55.862813 -58.021911 1.873176 0.686644 42.396664 -6.582163 2.666787 5.572426 -1.232509 -1.880793 -0.667534 1.144622 -0.998465 0.000000 0.000000 0.000000 58.380830 -73.651310 60.712493 -40.072372 -3.628274 -18.245209 46.956034 -2.915956 -1.604072 -15.885943 -3.597342 16.475402 -1.177493 0.749422 0.345969 0.000000 0.000000 0.000000 54.712100 -71.691407 55.506710 5.957696 3.371808 4.859679 13.167882 6.779206 6.459696 0.600257 -1.272945 0.626410 0.000000 0.000000 0.000000 12.117197 6.529798 6.271962 1.697888 -0.646650 2.141903 8.269726 4.872528 -5.406931 0.000000 0.000000 0.000000 12.559212 6.536375 6.277054 1.602191 -1.937926 -10.099070 0.655340 1.464427 -0.690109 -52.143379 -25.474283 -93.435417 -0.689529 -24.590363 -0.013819 0.000000 0.000000 0.000000 11.970304 6.641140 6.385428 0.952530 12.805255 22.406825 -6.571508 -0.241781 -0.590388 -52.222913 22.611206 72.891663 0.239215 6.799579 1.398195 0.000000 0.000000 0.000000 
-7.657314 102.104630 -0.940849 0.000000 0.000000 0.000000 54.323250 -72.909203 55.851553 -58.076566 1.890515 0.625807 42.343884 -6.580651 2.648158 5.547308 -1.188477 -1.836551 -0.656056 1.159491 -1.022709 0.000000 0.000000 0.000000 58.212883 -73.595322 60.501563 -40.074861 -3.756952 -18.327016 46.845573 -2.901271 -1.584929 -15.835787 -3.659052 16.458632 -1.121992 0.750689 0.359708 0.000000 0.000000 0.000000 54.521411 -71.623686 55.254615 5.881169 3.372252 4.846845 13.226445 6.777274 6.408694 0.627425 -1.220135 0.635286 0.000000 0.000000 0.000000 12.141810 6.518354 6.226555 1.700717 -0.581059 2.077743 8.025516 5.175182 -5.449784 0.000000 0.000000 0.000000 12.585394 6.528540 6.243456 1.611286 -1.945470 -10.128829 0.656609 1.411495 -0.656828 -51.959308 -25.590234 -93.373324 -0.669971 -24.701301 -0.033213 0.000000 0.000000 0.000000 12.018225 6.625133 6.332484 0.967929 12.730714 22.374598 -6.535505 -0.193020 -0.536217 -51.501986 22.852898 72.671533 0.216314 7.811597 1.397655 0.000000 0.000000 0.000000 
-7.599008 102.141251 -0.766102 0.000000 0.000000 0.000000 54.324603 -72.855367 55.789675 -58.148447 1.896960 0.553913 42.293634 -6.530192 2.596553 5.534869 -1.110123 -1.703515 -0.628657 1.177073 -1.053112 0.000000 0.000000 0.000000 57.986400 -73.506482 60.209798 -40.075172 -3.894359 -18.425649 46.721926 -2.874808 -1.566919 -15.803453 -3.728171 16.457344 -1.042549 0.749062 0.367670 0.000000 0.000000 0.000000 54.311824 -71.531301 54.970261 5.809176 3.373575 4.830041 13.296407 6.774738 6.349412 0.647234 -1.170443 0.650582 0.000000 0.000000 0.000000 12.172218 6.503370 6.173283 1.695451 -0.507473 1.982311 7.725581 5.565963 -5.487981 0.000000 0.000000 0.000000 12.624239 6.519139 6.198349 1.619390 -1.959446 -10.144955 0.649338 1.359937 -0.681949 -51.766274 -25.776999 -93.280160 -0.631728 -24.909068 -0.048738 0.000000 0.000000 0.000000 12.075570 6.614258 6.268811 0.971093 12.660849 22.331846 -6.508398 -0.105540 -0.484113 -50.680502 23.246016 72.397000 0.214826 8.796720 1.381084 0.000000 0.000000 0.000000 
-7.537201 102.167053 -0.595078 0.000000 0.000000 0.000000 54.291353 -72.772367 55.671332 -58.232431 1.890746 0.477175 42.258391 -6.410011 2.516421 5.553135 -0.999096 -1.474474 -0.604285 1.194134 -1.080430 0.000000 0.000000 0.000000 57.758661 -73.402158 59.895814 -40.071388 -4.002751 -18.534154 46.610597 -2.830471 -1.560237 -15.791297 -3.803998 16.475412 -0.935493 0.742377 0.365973 0.000000 0.000000 0.000000 54.057973 -71.427735 54.641175 5.748566 3.371242 4.808720 13.368932 6.764335 6.281862 0.654423 -1.140866 0.654576 0.000000 0.000000 0.000000 12.207521 6.479681 6.117059 1.685061 -0.429828 1.859716 7.398868 6.013531 -5.507547 0.000000 0.000000 0.000000 12.668567 6.503801 6.143698 1.625893 -1.974043 -10.153542 0.656659 1.303726 -0.733438 -51.609603 -26.061360 -93.151862 -0.577352 -25.236734 -0.064442 0.000000 0.000000 0.000000 12.133085 6.603346 6.199978 0.958484 12.605778 22.271550 -6.488755 -0.013645 -0.429434 -49.914981 23.697309 72.111068 0.232347 9.582358 1.351023 0.000000 0.000000 0.000000 
